<?xml version="1.0" standalone="no"?>
<!DOCTYPE svg PUBLIC "-//W3C//DTD SVG 20010904//EN"
 "http://www.w3.org/TR/2001/REC-SVG-20010904/DTD/svg10.dtd">
<svg version="1.0" xmlns="http://www.w3.org/2000/svg"
 width="432.000000pt" height="577.000000pt" viewBox="0 0 432.000000 577.000000"
 preserveAspectRatio="xMidYMid meet">

<g transform="translate(0.000000,577.000000) scale(0.100000,-0.100000)"
fill="#000000" stroke="none">
<path d="M1870 5379 c-310 -26 -681 -106 -910 -196 -36 -14 -109 -46 -162 -71
l-98 -45 0 -127 0 -127 -127 -75 c-164 -96 -296 -177 -306 -187 -4 -4 61 -52
144 -107 84 -54 156 -101 160 -104 4 -3 -9 -111 -30 -240 -21 -129 -37 -237
-35 -239 2 -2 36 20 76 48 40 29 111 79 158 112 46 33 164 110 262 171 l178
111 0 93 0 92 63 21 c277 92 653 137 1047 128 304 -8 523 -36 763 -99 l117
-31 0 -97 0 -98 158 -98 c158 -98 242 -154 406 -272 83 -59 116 -79 116 -71 0
2 -18 110 -39 239 -22 129 -39 235 -38 235 25 13 317 209 316 214 0 3 -99 65
-219 136 l-220 130 0 133 0 133 -84 39 c-270 125 -656 217 -1051 250 -139 11
-506 11 -645 -1z m740 -24 c354 -40 641 -110 908 -222 l112 -47 0 -373 c0
-205 -2 -373 -4 -373 -2 0 -39 17 -82 39 -260 127 -603 220 -974 262 -144 17
-600 17 -735 1 -387 -47 -728 -138 -1008 -270 l-107 -51 2 372 3 372 117 52
c324 144 694 226 1168 257 106 7 467 -4 600 -19z m1235 -665 c89 -54 174 -104
188 -111 15 -7 27 -15 27 -19 0 -4 -67 -52 -150 -106 -128 -84 -150 -103 -150
-124 1 -14 16 -115 34 -225 19 -110 32 -202 30 -203 -1 -2 -23 11 -48 30 -154
115 -300 212 -489 326 -31 19 -60 39 -63 43 -3 5 91 9 210 9 l216 0 0 246 c0
228 1 246 17 240 9 -4 90 -51 178 -106z m-3145 -145 l0 -245 217 0 c183 0 215
-2 203 -14 -8 -7 -73 -49 -145 -93 -71 -44 -201 -130 -288 -191 -87 -62 -160
-112 -161 -112 -4 0 27 204 52 343 l19 107 -154 102 c-87 57 -150 105 -145
110 13 13 386 238 395 238 4 0 7 -110 7 -245z m2576 -79 c82 -28 281 -113 309
-132 17 -12 -10 -14 -188 -14 l-207 0 0 85 c0 47 4 85 8 85 5 0 40 -11 78 -24z
m-2116 -71 l0 -85 -207 1 -208 1 93 45 c96 46 287 122 310 123 9 0 12 -24 12
-85z"/>
<path d="M2265 5273 c-11 -21 -21 -41 -23 -45 -2 -5 7 -8 20 -8 13 0 45 20 73
45 l50 44 -51 1 c-48 0 -51 -2 -69 -37z"/>
<path d="M1876 5193 l-49 -4 6 -211 c4 -116 8 -212 9 -213 2 -2 72 -1 156 2
l152 6 0 55 0 55 -94 -5 -93 -5 -7 96 c-3 53 -6 126 -6 164 0 48 -4 66 -12 65
-7 -1 -35 -3 -62 -5z"/>
<path d="M2220 5122 c0 -44 -3 -140 -7 -215 l-6 -137 61 0 61 0 5 53 c3 28 7
125 9 215 l4 162 -63 0 -64 0 0 -78z"/>
<path d="M2547 5176 c-77 -28 -117 -92 -125 -199 -10 -147 70 -237 211 -237
54 0 117 39 144 90 26 49 26 49 -46 75 -39 13 -39 13 -51 -15 -25 -60 -105
-59 -131 2 -15 37 -5 125 19 157 35 47 95 44 117 -7 9 -20 15 -23 45 -18 19 3
43 6 53 6 27 0 21 41 -13 88 -23 32 -41 44 -82 57 -62 18 -91 18 -141 1z"/>
<path d="M1505 5171 c-78 -19 -123 -62 -144 -136 -14 -51 -14 -81 0 -147 16
-74 84 -143 151 -153 104 -16 201 34 234 121 32 83 4 225 -54 277 -43 39 -119
54 -187 38z m79 -102 c33 -15 51 -62 51 -131 0 -68 -25 -101 -74 -101 -44 0
-68 27 -81 89 -13 64 -1 115 33 139 26 18 38 19 71 4z"/>
<path d="M2906 5128 c-9 -41 -57 -400 -54 -403 2 -2 29 -6 60 -10 54 -7 57 -6
62 16 16 68 55 394 48 400 -4 4 -31 9 -59 13 -49 6 -53 5 -57 -16z"/>
<path d="M3217 5033 c-166 -274 -196 -328 -184 -335 7 -4 36 -10 63 -13 50 -7
51 -7 64 24 8 21 18 30 29 27 9 -2 39 -10 68 -16 50 -11 52 -13 55 -48 3 -36
4 -37 62 -50 32 -7 60 -11 61 -10 5 6 -50 433 -58 444 -4 7 -24 15 -44 19 -21
3 -48 9 -59 11 -18 5 -28 -5 -57 -53z m82 -191 c1 -33 0 -33 -31 -27 -18 4
-36 9 -39 11 -4 2 7 31 25 64 l31 59 7 -37 c4 -20 7 -52 7 -70z"/>
<path d="M1038 5038 c-69 -15 -98 -25 -98 -35 0 -20 71 -397 76 -402 2 -2 27
0 56 5 52 9 53 9 52 44 0 19 -4 56 -8 81 l-8 46 49 8 c91 13 133 56 133 136 0
77 -54 140 -119 138 -20 -1 -80 -10 -133 -21z m120 -90 c25 -25 14 -58 -24
-74 -20 -8 -38 -14 -40 -12 -7 8 -21 87 -16 93 10 10 68 5 80 -7z"/>
<path d="M2259 4352 c-72 -46 -120 -114 -143 -203 l-13 -53 -34 64 c-41 78
-108 146 -174 176 -47 22 -75 30 -75 20 0 -3 25 -29 56 -58 31 -29 73 -82 95
-118 43 -72 52 -104 21 -77 -71 65 -209 61 -277 -7 -35 -35 -32 -50 8 -29 21
11 55 17 99 18 59 0 70 -3 103 -30 21 -17 45 -40 53 -53 l14 -22 -47 21 c-71
32 -186 24 -251 -17 -47 -29 -93 -79 -82 -89 3 -3 29 9 58 27 47 29 61 33 124
33 55 0 82 -6 119 -25 69 -35 81 -54 22 -33 -86 29 -195 2 -257 -64 -27 -28
-71 -114 -63 -122 3 -2 24 15 47 38 87 88 189 110 275 61 24 -13 42 -25 40
-26 -1 -1 -20 2 -42 8 -82 22 -163 -15 -205 -94 -28 -53 -21 -75 11 -34 30 38
91 66 141 65 l43 -1 -42 -15 c-50 -17 -90 -61 -99 -107 -4 -26 -12 -36 -31
-41 -41 -10 -125 -68 -174 -121 -161 -174 -101 -462 151 -728 103 -109 200
-184 306 -237 80 -40 96 -44 160 -44 85 0 98 9 151 103 43 77 106 147 228 253
52 44 110 105 131 134 59 87 125 98 132 24 3 -27 1 -32 -9 -21 -20 19 -73 14
-103 -9 -36 -28 -33 -39 9 -32 31 5 36 3 45 -22 6 -16 8 -42 4 -59 l-7 -31 -9
32 c-5 18 -18 38 -29 44 -28 15 -77 4 -106 -23 -30 -28 -29 -40 1 -27 38 18
66 -3 66 -49 -1 -33 -2 -35 -12 -17 -16 28 -28 35 -66 35 -35 0 -82 -25 -82
-44 0 -6 17 -11 42 -11 40 0 43 -2 46 -28 6 -50 -4 -60 -32 -32 -29 29 -55 31
-96 10 -38 -19 -38 -35 -2 -35 28 0 52 -16 52 -34 0 -6 -5 -5 -12 2 -13 13
-78 17 -78 4 0 -4 9 -13 20 -20 26 -16 28 -47 3 -37 -36 15 -64 17 -78 5 -21
-17 -19 -27 7 -33 l22 -6 -23 -25 c-14 -15 -72 -43 -149 -71 l-126 -47 -68 23
c-59 20 -69 28 -78 54 -19 58 -108 123 -149 110 -10 -3 -20 3 -26 17 -14 31
-92 88 -120 88 -16 0 -25 7 -29 24 -3 13 -26 42 -51 64 -25 22 -45 48 -45 58
0 38 -48 122 -80 140 -27 16 -31 23 -27 49 3 17 -2 48 -10 70 -8 23 -16 86
-17 146 -3 75 -9 117 -21 143 -17 35 -18 36 -41 21 -29 -19 -30 -10 -5 32 14
22 25 30 38 27 10 -3 31 5 46 17 27 21 28 22 10 39 -10 9 -31 20 -46 24 -15 3
-27 13 -27 20 0 16 -39 25 -76 18 -19 -3 -24 -10 -22 -26 3 -28 -9 -46 -27
-39 -9 3 -15 -1 -15 -11 0 -9 -4 -16 -10 -16 -23 0 -8 -33 20 -43 18 -7 33
-22 39 -39 l10 -28 -41 21 c-52 26 -61 16 -54 -63 4 -53 2 -58 -16 -58 -33 0
-19 -80 22 -132 27 -34 29 -39 12 -34 -27 9 -33 -4 -21 -47 20 -73 101 -136
177 -137 28 0 32 -3 32 -26 l0 -26 -17 21 c-16 19 -21 20 -45 9 -51 -25 -39
-78 18 -78 14 0 37 -18 65 -51 l42 -51 -79 52 c-43 28 -83 59 -88 69 -4 11
-19 24 -32 30 -32 14 -34 14 -34 -3 0 -8 -6 -16 -13 -19 -8 -3 -13 -16 -12
-29 1 -18 8 -24 33 -26 29 -3 30 -5 21 -30 -7 -18 -7 -28 0 -30 5 -2 7 -10 4
-18 -7 -19 36 -19 62 0 14 10 26 11 54 2 l36 -11 -50 -5 c-36 -4 -51 -10 -53
-22 -5 -23 63 -95 104 -110 19 -6 34 -16 34 -20 0 -5 18 -28 41 -52 30 -33 53
-48 89 -57 36 -9 47 -16 40 -24 -12 -14 18 -43 70 -71 48 -26 171 -25 220 1
31 16 96 22 109 9 3 -3 -5 -11 -17 -20 -15 -11 -22 -25 -22 -50 0 -19 4 -34 9
-34 6 0 36 16 68 35 32 19 61 35 64 35 3 0 34 -18 67 -40 l62 -40 0 45 c0 25
-4 45 -8 45 -5 0 -17 6 -27 14 -18 13 -14 16 49 35 121 37 216 21 171 -29 -10
-11 -16 -23 -12 -26 10 -10 59 20 80 48 19 25 19 28 3 52 -16 25 -16 26 7 26
39 0 60 -23 55 -58 -6 -43 14 -42 41 2 26 42 26 61 1 86 -18 18 -18 21 -5 27
9 3 27 1 41 -5 19 -9 24 -19 24 -49 l1 -38 29 33 c41 44 41 86 0 111 l-31 18
51 22 c40 17 54 19 71 10 19 -10 21 -17 16 -60 -4 -28 -2 -49 3 -49 18 0 70
83 70 110 0 29 -22 54 -60 68 -24 9 -24 10 15 21 86 24 116 6 98 -60 -15 -55
1 -58 32 -5 52 89 29 146 -59 146 l-51 1 28 24 c35 31 71 32 92 3 13 -20 17
-21 25 -8 14 22 12 42 -6 69 -14 19 -24 22 -56 19 -40 -4 -40 -4 -18 14 27 22
64 32 85 24 8 -3 21 -18 27 -33 17 -38 18 -39 28 -23 16 26 11 86 -8 103 -21
19 -68 22 -106 7 -33 -12 -33 -3 1 32 33 35 86 39 103 8 16 -29 30 -24 30 10
0 19 -9 40 -25 55 -26 27 -46 31 -76 15 -28 -15 -25 5 6 35 13 14 35 25 49 25
28 0 56 -24 56 -47 0 -30 25 -5 28 28 2 24 -4 44 -19 63 -18 23 -28 27 -60 24
-22 -2 -39 -2 -39 1 0 2 9 19 21 37 25 41 52 44 75 8 20 -29 34 -17 34 29 0
47 -17 67 -55 67 l-35 0 20 51 c10 28 27 60 36 70 9 11 14 22 11 25 -10 10
-76 -36 -91 -64 -14 -26 -14 -25 -26 33 -14 67 -31 105 -56 126 -16 13 -17 12
-10 -11 4 -14 9 -59 12 -100 4 -61 3 -71 -7 -55 -16 27 -71 85 -80 85 -5 0 5
-28 21 -62 16 -35 32 -75 35 -89 6 -24 4 -25 -24 -21 -22 3 -36 -2 -55 -21
-35 -35 -33 -47 8 -40 28 4 37 1 49 -18 8 -13 18 -40 22 -59 7 -34 7 -35 -12
-17 -26 22 -54 22 -85 -3 l-26 -20 -4 63 c-5 85 -52 182 -120 250 -76 76 -114
92 -220 92 -77 0 -88 2 -88 18 0 20 -1 20 55 6 51 -13 140 8 169 40 17 18 16
20 -13 37 l-30 17 47 22 c26 12 54 30 62 39 12 16 11 20 -9 36 l-24 17 26 7
c29 7 83 49 98 77 9 17 6 21 -20 30 -30 11 -30 11 -16 39 8 16 15 48 15 71 0
41 0 41 -31 35 -17 -3 -43 -15 -57 -25 l-27 -19 -31 36 -32 37 -24 -22 c-35
-33 -68 -31 -68 5 0 52 -13 58 -64 28 -25 -15 -46 -22 -46 -17 0 5 -13 22 -29
38 l-28 29 20 42 c11 24 40 63 64 88 24 26 42 48 40 51 -10 9 -77 -27 -118
-64 -23 -21 -55 -58 -71 -82 -15 -25 -28 -37 -28 -28 0 35 42 124 80 171 56
68 52 74 -21 28z m-349 -743 c0 -33 -3 -40 -16 -35 -9 3 -36 6 -62 6 l-45 0
24 26 c26 28 53 42 82 43 13 1 17 -7 17 -40z m-530 -79 c0 -4 -6 -14 -13 -24
-17 -23 -51 -17 -55 10 -2 17 2 20 33 20 19 -1 35 -3 35 -6z m56 -51 c6 -5 14
-6 17 -2 4 3 7 2 7 -4 0 -13 -23 -23 -51 -23 -14 0 -19 7 -19 25 0 19 4 23 18
18 9 -3 22 -10 28 -14z m-59 -11 c1 -11 -7 -32 -18 -46 l-19 -25 0 31 c0 17 7
38 16 46 20 20 19 20 21 -6z m-76 -41 c-7 -7 -18 -7 -36 1 -24 11 -25 14 -11
28 9 8 20 13 25 9 5 -3 13 0 18 7 5 9 9 6 11 -11 2 -13 -1 -28 -7 -34z m16
-29 c-3 -8 -6 -5 -6 6 -1 11 2 17 5 13 3 -3 4 -12 1 -19z m833 -28 c0 -5 0
-13 0 -17 0 -5 -28 -10 -62 -13 -56 -5 -63 -7 -68 -30 -5 -21 -12 -25 -39 -22
-28 2 -34 -2 -45 -30 l-14 -32 -4 55 c-2 30 -3 57 -1 62 2 4 32 7 67 7 34 0
66 4 72 9 8 8 29 13 82 20 6 0 12 -3 12 -9z m124 -25 c3 -8 1 -15 -4 -15 -5 0
-19 -18 -30 -40 -11 -22 -25 -40 -30 -40 -6 0 -11 -15 -11 -32 l-2 -33 -4 30
c-7 44 -18 52 -70 51 -59 -2 -70 -8 -81 -49 -8 -26 -9 -19 -8 38 l1 70 68 3
c39 2 67 7 67 14 0 6 11 8 24 6 14 -3 31 -1 38 3 20 13 35 11 42 -6z m-754
-207 c0 -49 -5 -47 -14 5 -4 23 -3 37 4 37 5 0 10 -19 10 -42z m48 0 c-2 -31
-8 -44 -20 -46 -15 -3 -18 4 -18 42 0 40 3 46 21 46 18 0 20 -5 17 -42z m42
-3 c0 -33 -4 -45 -15 -45 -11 0 -15 12 -15 45 0 33 4 45 15 45 11 0 15 -12 15
-45z m50 -1 c0 -38 -3 -45 -17 -42 -13 2 -19 15 -21 46 -3 37 -1 42 17 42 18
0 21 -6 21 -46z m50 0 c0 -38 -3 -45 -17 -42 -13 2 -19 15 -21 46 -3 37 -1 42
17 42 18 0 21 -6 21 -46z m50 1 c0 -38 -3 -45 -20 -45 -17 0 -20 7 -20 45 0
38 3 45 20 45 17 0 20 -7 20 -45z m50 0 c0 -38 -3 -45 -20 -45 -17 0 -20 7
-20 45 0 38 3 45 20 45 17 0 20 -7 20 -45z m45 0 c0 -30 -4 -41 -17 -43 -15
-3 -18 4 -18 43 0 39 3 46 18 43 13 -2 17 -13 17 -43z m45 0 c0 -33 -4 -45
-15 -45 -11 0 -15 12 -15 45 0 33 4 45 15 45 11 0 15 -12 15 -45z m50 0 c0
-33 -4 -45 -15 -45 -11 0 -15 12 -15 45 0 33 4 45 15 45 11 0 15 -12 15 -45z
m50 0 c0 -38 -3 -45 -20 -45 -17 0 -20 7 -20 45 0 38 3 45 20 45 17 0 20 -7
20 -45z m50 0 c0 -38 -3 -45 -20 -45 -17 0 -20 7 -20 45 0 38 3 45 20 45 17 0
20 -7 20 -45z m50 0 c0 -38 -3 -45 -20 -45 -17 0 -20 7 -20 45 0 38 3 45 20
45 17 0 20 -7 20 -45z m690 25 c0 -20 -7 -20 -340 -20 -333 0 -340 0 -340 20
0 20 7 20 340 20 333 0 340 0 340 -20z m80 -40 c6 -12 10 -33 8 -48 -3 -25 -6
-27 -41 -24 -21 2 -44 -1 -51 -7 -11 -9 -10 1 2 44 14 50 18 55 43 55 18 0 32
-7 39 -20z m-87 -10 c-5 -19 -14 -20 -339 -20 -327 0 -334 0 -334 20 0 20 7
20 339 20 334 0 339 0 334 -20z m-593 -97 c0 -93 17 -237 36 -303 9 -30 32
-88 51 -129 37 -77 37 -92 0 -115 -20 -13 -35 4 -78 92 -48 99 -78 237 -86
389 l-6 133 41 0 42 0 0 -67z m575 46 c-15 -45 -80 -144 -124 -188 -26 -25
-92 -87 -146 -137 -55 -50 -116 -117 -135 -147 -19 -31 -38 -56 -41 -57 -9 0
-66 128 -83 190 -18 61 -36 214 -36 303 l0 57 286 0 285 0 -6 -21z m-919 -73
c110 -51 173 -135 182 -241 l5 -65 35 0 c33 0 34 -1 19 -18 -10 -10 -17 -31
-17 -46 0 -23 -3 -27 -17 -21 -10 5 -33 10 -50 13 -33 4 -42 15 -23 27 19 12
10 25 -26 40 -117 49 -184 140 -192 262 -5 86 -1 88 84 49z m-446 -146 c0 -24
-15 -33 -39 -25 -13 4 -17 12 -14 25 3 11 9 18 13 15 5 -3 11 -1 15 5 9 15 25
2 25 -20z m-105 -16 c20 -20 4 -44 -30 -44 -24 0 -29 24 -10 47 13 16 21 16
40 -3z m143 -30 c7 -14 8 -23 2 -19 -15 9 -32 45 -22 45 5 0 14 -12 20 -26z
m-62 -45 c47 -26 75 -49 61 -49 -14 0 -77 32 -77 38 0 5 -15 16 -32 25 -18 8
-27 16 -19 16 7 1 38 -13 67 -30z m-42 -5 c22 -8 20 -31 -3 -44 -24 -12 -34
-13 -26 -1 3 5 1 12 -4 16 -11 6 -3 35 9 35 5 0 15 -3 24 -6z m180 -27 c10 -7
17 -21 15 -31 -3 -15 -8 -12 -27 13 -24 32 -18 40 12 18z m179 -206 c-8 -10
-35 28 -28 39 5 8 11 4 19 -12 7 -12 11 -25 9 -27z m157 -71 c0 -5 -4 -10 -10
-10 -5 0 -10 5 -10 10 0 6 5 10 10 10 6 0 10 -4 10 -10z"/>
<path d="M2358 2962 c-21 -32 -38 -62 -38 -65 0 -8 71 -117 76 -117 5 0 74
109 74 116 0 5 -71 124 -74 124 -1 0 -18 -26 -38 -58z"/>
<path d="M1810 2940 c0 -67 67 -172 131 -205 40 -21 42 -20 34 22 -8 45 -26
81 -61 122 -29 35 -104 78 -104 61z"/>
<path d="M698 2123 l-75 -218 -132 -26 c-72 -14 -134 -29 -137 -32 -7 -6 87
-169 157 -272 26 -38 79 -104 118 -147 l71 -76 0 -151 0 -151 33 -20 c70 -43
290 -136 442 -186 824 -272 1565 -223 2388 158 l87 41 0 146 0 147 51 49 c28
28 75 83 106 123 60 80 193 298 193 318 0 8 -45 21 -126 35 -69 13 -132 28
-139 34 -6 5 -35 78 -63 160 -83 242 -90 259 -100 263 -5 1 -15 -17 -21 -42
-19 -77 -90 -226 -162 -342 l-69 -112 0 -105 0 -106 -107 -35 c-149 -48 -243
-70 -418 -100 -221 -37 -365 -48 -610 -48 -393 1 -738 57 -1083 175 l-67 23
-3 108 -3 108 -46 72 c-68 103 -137 239 -169 331 -15 44 -30 84 -34 88 -4 4
-41 -90 -82 -210z m117 77 c34 -90 95 -205 157 -297 15 -23 28 -46 28 -51 0
-5 -53 -21 -117 -37 -65 -15 -133 -31 -150 -37 l-33 -9 -2 -192 -3 -192 -43
45 c-66 69 -142 173 -215 295 l-66 110 130 26 c71 14 131 28 133 30 2 2 34 95
72 206 38 111 70 201 70 200 1 -1 18 -45 39 -97z m2862 -215 c20 -60 37 -111
38 -112 1 -2 48 -12 106 -23 144 -28 149 -29 149 -38 0 -14 -128 -223 -173
-282 -22 -30 -64 -79 -92 -109 l-50 -53 -5 193 -5 194 -142 35 c-78 19 -144
38 -148 41 -3 4 23 53 57 110 63 102 123 226 148 303 l13 39 33 -94 c19 -52
51 -143 71 -204z m-2667 -250 c0 -86 -2 -94 -17 -88 -59 20 -255 107 -247 110
47 14 251 72 257 72 4 1 7 -42 7 -94z m2455 45 c60 -17 114 -34 122 -39 12 -6
-82 -54 -209 -105 l-38 -15 0 95 c0 51 4 94 8 94 5 0 57 -14 117 -30z m-2625
-91 c268 -120 632 -219 960 -261 163 -20 700 -17 860 5 317 45 598 122 835
228 71 33 131 59 132 59 2 0 3 -148 3 -330 l0 -330 -38 -19 c-93 -47 -339
-147 -474 -192 -345 -115 -703 -170 -1013 -155 -463 22 -884 124 -1287 313
l-98 46 0 344 c0 188 1 343 3 343 2 0 55 -23 117 -51z"/>
<path d="M1547 1300 c-55 -10 -88 -38 -121 -103 -58 -116 -31 -264 57 -310 53
-27 154 -34 195 -13 34 18 82 74 82 97 0 8 -21 25 -47 38 -40 19 -48 20 -55 7
-18 -32 -41 -46 -73 -46 -54 0 -68 22 -63 101 4 83 28 122 77 127 36 4 59 -11
72 -46 9 -23 13 -24 62 -18 28 4 53 9 54 10 5 5 -19 70 -34 93 -30 45 -131 76
-206 63z"/>
<path d="M2641 1269 c-24 -5 -46 -10 -48 -13 -5 -5 49 -403 57 -416 4 -6 65
-1 159 13 l153 22 -7 50 c-3 27 -8 52 -11 54 -2 3 -44 0 -92 -6 -48 -6 -89
-10 -90 -8 -2 2 -14 72 -26 157 -24 168 -20 162 -95 147z"/>
<path d="M1836 1209 c-12 -102 -36 -372 -34 -375 2 -1 30 -5 64 -9 l61 -7 6
64 c17 175 29 360 23 365 -3 4 -30 8 -60 11 l-54 4 -6 -53z"/>
<path d="M2445 1248 c-38 -5 -89 -7 -113 -5 -23 3 -45 0 -49 -6 -3 -5 -25 -71
-48 -145 -48 -154 -39 -157 -90 28 -14 52 -28 103 -31 113 -4 14 -17 17 -69
17 l-64 0 14 -42 c7 -24 39 -123 70 -220 l56 -178 67 0 67 0 74 205 c41 112
78 202 81 200 4 -2 10 -71 14 -152 4 -81 9 -169 13 -195 l6 -48 64 0 65 0 -6
58 c-3 31 -8 104 -11 162 -9 166 -16 220 -28 219 -7 -1 -43 -6 -82 -11z"/>
<path d="M1644 2285 c-6 -15 1 -83 13 -134 8 -35 -15 -18 -66 47 -46 58 -63
65 -56 25 16 -104 16 -111 -5 -118 -18 -6 -13 -14 46 -81 63 -70 66 -77 68
-126 l1 -53 40 -3 c31 -3 53 -14 97 -53 l56 -49 316 0 316 0 53 50 c43 41 58
50 90 50 35 0 37 2 37 30 0 17 8 43 18 58 61 89 92 146 92 168 0 2 -12 1 -26
-2 -25 -6 -26 -6 -14 17 7 13 19 32 28 42 14 16 13 17 -15 17 -31 0 -31 0 -22
40 5 22 6 52 3 66 l-7 25 -26 -23 c-53 -48 -109 -87 -115 -81 -3 4 -6 15 -6
25 0 30 -25 20 -69 -27 -23 -25 -44 -45 -46 -45 -3 0 -5 20 -5 44 0 25 -5 48
-10 51 -6 4 -33 -19 -61 -49 l-51 -56 -34 37 c-33 35 -35 35 -54 18 -11 -10
-22 -27 -26 -38 -6 -20 -7 -20 -25 4 -14 19 -20 22 -30 12 -21 -21 -28 -15
-31 27 -2 22 -7 41 -13 43 -5 1 -23 -17 -40 -40 -16 -23 -32 -42 -35 -42 -3
-1 -16 16 -30 37 -13 20 -26 39 -27 41 -2 3 -17 -8 -33 -24 -29 -28 -30 -28
-50 -10 -11 10 -20 26 -20 37 0 27 -14 22 -47 -15 l-28 -33 -62 44 c-35 24
-63 48 -63 53 0 15 -20 10 -26 -6z m145 -113 c9 -15 11 -14 19 8 9 25 40 57
45 49 16 -24 67 -78 67 -71 0 5 9 21 21 36 l21 26 40 -42 c21 -24 41 -38 44
-33 2 6 14 25 25 44 24 39 32 33 43 -31 8 -41 21 -49 29 -18 7 28 22 25 36 -7
l13 -28 19 37 c31 60 49 59 82 -4 l14 -28 57 60 c31 33 59 54 61 47 9 -29 12
-106 4 -101 -5 3 -9 1 -9 -5 0 -5 -17 -26 -37 -45 -30 -28 -39 -32 -46 -21
-12 22 -25 18 -51 -12 l-23 -27 -25 29 -25 29 -34 -28 -33 -28 -18 35 c-10 20
-22 38 -27 42 -5 3 -33 -19 -62 -50 -28 -30 -55 -52 -60 -49 -5 3 -9 18 -9 35
0 37 -18 38 -60 3 l-31 -26 -12 31 c-6 17 -16 30 -22 28 -5 -2 -21 5 -35 16
l-25 19 -3 -28 c-1 -16 -5 -39 -8 -52 -5 -23 -5 -23 -44 12 -44 40 -71 47 -63
17 4 -16 0 -18 -24 -13 -25 5 -27 3 -15 -11 8 -9 12 -21 10 -28 -2 -6 -25 14
-52 45 -34 40 -43 56 -31 56 13 0 16 6 12 23 -4 12 -9 42 -12 67 l-7 45 31
-35 c17 -19 31 -38 31 -42 0 -4 14 -15 31 -24 l31 -16 -7 82 -7 82 60 -41 c34
-23 65 -49 71 -59z m902 12 c-12 -44 -10 -49 18 -35 19 11 19 9 -5 -38 -13
-28 -28 -52 -33 -55 -4 -3 -16 11 -25 32 l-18 36 -23 -47 c-12 -27 -25 -51
-28 -54 -4 -3 -14 14 -24 38 l-17 43 -11 -26 c-13 -34 -45 -69 -56 -62 -5 3
-13 23 -19 44 -12 44 -2 67 54 128 36 39 42 39 50 7 6 -23 36 -36 36 -15 0 5
24 27 53 48 51 38 52 39 55 16 2 -13 -1 -40 -7 -60z m-233 -356 l-3 -33 -282
-3 -283 -2 0 35 0 35 286 0 285 0 -3 -32z"/>
<path d="M3597 786 c-4 -10 -1 -13 8 -9 8 3 12 9 9 14 -7 12 -11 11 -17 -5z"/>
<path d="M3549 723 c-13 -16 -12 -17 4 -4 16 13 21 21 13 21 -2 0 -10 -8 -17
-17z"/>
<path d="M3380 590 c-9 -6 -10 -10 -3 -10 6 0 15 5 18 10 8 12 4 12 -15 0z"/>
<path d="M1938 555 c-14 -8 -36 -35 -48 -60 -25 -52 -22 -106 7 -156 36 -60
134 -77 213 -36 l45 22 3 63 3 62 -71 0 -71 0 3 -32 c2 -28 8 -34 31 -36 51
-6 24 -32 -33 -32 -69 0 -83 116 -19 150 16 9 26 8 47 -6 15 -10 34 -17 42
-16 70 12 74 19 31 63 -27 26 -36 29 -93 29 -35 -1 -75 -7 -90 -15z"/>
<path d="M2261 557 c-63 -32 -90 -137 -54 -207 48 -93 205 -92 255 1 36 67 15
163 -44 199 -38 23 -119 27 -157 7z m113 -79 c34 -48 7 -128 -43 -128 -45 0
-69 94 -34 132 22 25 59 23 77 -4z"/>
</g>
</svg>
